<?xml version="1.0" encoding="UTF-8" standalone="no"?>
<!-- Generator: Adobe Illustrator 13.0.0, SVG Export Plug-In  -->

<svg
   xmlns:dc="http://purl.org/dc/elements/1.1/"
   xmlns:cc="http://creativecommons.org/ns#"
   xmlns:rdf="http://www.w3.org/1999/02/22-rdf-syntax-ns#"
   xmlns:svg="http://www.w3.org/2000/svg"
   xmlns="http://www.w3.org/2000/svg"
   xmlns:sodipodi="http://sodipodi.sourceforge.net/DTD/sodipodi-0.dtd"
   xmlns:inkscape="http://www.inkscape.org/namespaces/inkscape"
   version="1.1"
   x="0px"
   y="0px"
   width="576px"
   height="576px"
   viewBox="-0.031 -0.031 576 576"
   enable-background="new -0.031 -0.031 576 576"
   xml:space="preserve"
   id="svg2"
   inkscape:version="0.48.1 "
   sodipodi:docname="B9f.svg"
   inkscape:export-filename="C:\Documents and Settings\bertrand.bouteilles\Bureau\Panneaux\A - Route\3_interdiction\B9f.png"
   inkscape:export-xdpi="150"
   inkscape:export-ydpi="150"><metadata
   id="metadata30"><rdf:RDF><cc:Work
       rdf:about=""><dc:format>image/svg+xml</dc:format><dc:type
         rdf:resource="http://purl.org/dc/dcmitype/StillImage" /><dc:title></dc:title></cc:Work></rdf:RDF></metadata><sodipodi:namedview
   pagecolor="#ffffff"
   bordercolor="#666666"
   borderopacity="1"
   objecttolerance="10"
   gridtolerance="10"
   guidetolerance="10"
   inkscape:pageopacity="0"
   inkscape:pageshadow="2"
   inkscape:window-width="1280"
   inkscape:window-height="964"
   id="namedview28"
   showgrid="false"
   inkscape:zoom="0.06358507"
   inkscape:cx="-822.45089"
   inkscape:cy="-238.68898"
   inkscape:window-x="-4"
   inkscape:window-y="-4"
   inkscape:window-maximized="1"
   inkscape:current-layer="svg2" />
<defs
   id="defs4">
</defs>
<circle
   cx="287.96899"
   cy="287.96899"
   r="286.96899"
   id="circle6"
   sodipodi:cx="287.96899"
   sodipodi:cy="287.96899"
   sodipodi:rx="286.96899"
   sodipodi:ry="286.96899"
   transform="translate(5.859375e-6,5.8593754e-6)"
   style="fill:#ffffff;stroke:#000000;stroke-width:2;stroke-linecap:round;stroke-linejoin:round" />
<circle
   cx="287.96899"
   cy="287.96899"
   r="274.77499"
   id="circle8"
   sodipodi:cx="287.96899"
   sodipodi:cy="287.96899"
   sodipodi:rx="274.77499"
   sodipodi:ry="274.77499"
   transform="translate(5.859375e-6,5.8593754e-6)"
   style="fill:#ff0000;stroke:#ff0000;stroke-width:0.17640001000000000;stroke-linecap:round;stroke-linejoin:round" />
<circle
   cx="287.96899"
   cy="287.96899"
   r="192.438"
   id="circle10"
   sodipodi:cx="287.96899"
   sodipodi:cy="287.96899"
   sodipodi:rx="192.438"
   sodipodi:ry="192.438"
   transform="translate(5.859375e-6,5.8593754e-6)"
   style="fill:#ffffff;stroke:#ff0000;stroke-width:0.17640001;stroke-linecap:round;stroke-linejoin:round" />







<g
   id="g3007"
   transform="translate(3.3085,4.7014953)"><circle
     id="circle12"
     r="19.186001"
     cy="324.79001"
     cx="355.16101"
     sodipodi:cx="355.16101"
     sodipodi:cy="324.79001"
     sodipodi:rx="19.186001"
     sodipodi:ry="19.186001"
     style="stroke:#000000;stroke-width:0.17640001;stroke-linecap:round;stroke-linejoin:round"
     d="m 374.34701,324.79001 c 0,10.59613 -8.58986,19.186 -19.186,19.186 -10.59613,0 -19.186,-8.58987 -19.186,-19.186 0,-10.59614 8.58987,-19.186 19.186,-19.186 10.59614,0 19.186,8.58986 19.186,19.186 z" /><circle
     id="circle14"
     r="19.186001"
     cy="324.79001"
     cx="205.213"
     sodipodi:cx="205.213"
     sodipodi:cy="324.79001"
     sodipodi:rx="19.186001"
     sodipodi:ry="19.186001"
     style="stroke:#000000;stroke-width:0.17640001;stroke-linecap:round;stroke-linejoin:round"
     d="m 224.399,324.79001 c 0,10.59613 -8.58987,19.186 -19.186,19.186 -10.59614,0 -19.186,-8.58987 -19.186,-19.186 0,-10.59614 8.58986,-19.186 19.186,-19.186 10.59613,0 19.186,8.58986 19.186,19.186 z" /><path
     id="path16"
     d="m 149.453,237.329 4.08,1.27 -8.63,28.798 -4.904,2.466 -2.943,3.658 -0.844,49.394 6.462,4.805 h 38.101 c -1.106,-9.231 3.083,-18.299 10.831,-23.438 7.747,-5.141 17.729,-5.478 25.805,-0.87 8.076,4.608 12.867,13.371 12.384,22.656 H 330.58 c -0.472,-9.084 4.104,-17.688 11.901,-22.374 7.796,-4.686 17.542,-4.689 25.343,-0.01 7.8,4.68 12.384,13.279 11.919,22.364 h 53.366 V 224.734 l -0.762,-1.24 -0.588,-0.572 -0.686,-0.286 -1.042,-0.001 H 152.918 l -1.284,-0.076 -0.481,0.118 -0.562,0.703 -0.161,0.936 -0.094,1.054 -0.814,11.027"
     inkscape:connector-curvature="0"
     style="stroke:#000000;stroke-width:0.17640001;stroke-linecap:round;stroke-linejoin:round" /><polygon
     id="polygon18"
     points="175.472,269.448 150.359,269.448 157.384,242.401 175.472,242.401 "
     style="fill:#ffffff;stroke:#000000;stroke-width:0.17640001;stroke-linecap:round;stroke-linejoin:round" /><rect
     id="rect20"
     height="27.047001"
     width="54.831001"
     y="242.401"
     x="178.73801"
     style="fill:#ffffff;stroke:#000000;stroke-width:0.17640001;stroke-linecap:round;stroke-linejoin:round" /><rect
     id="rect22"
     height="27.047001"
     width="60.254002"
     y="242.401"
     x="236.83501"
     style="fill:#ffffff;stroke:#000000;stroke-width:0.17640001;stroke-linecap:round;stroke-linejoin:round" /><rect
     id="rect24"
     height="27.047001"
     width="62.018002"
     y="242.401"
     x="300.35699"
     style="fill:#ffffff;stroke:#000000;stroke-width:0.17640001;stroke-linecap:round;stroke-linejoin:round" /><rect
     id="rect26"
     height="27.047001"
     width="57.014999"
     y="242.401"
     x="365.642"
     style="fill:#ffffff;stroke:#000000;stroke-width:0.17640001;stroke-linecap:round;stroke-linejoin:round" /></g>
</svg>